<?xml version="1.0" encoding="UTF-8"?>
<!-- Generated by Pixelmator Pro Trial 3.4.3 -->
<svg width="299" height="83" viewBox="0 0 299 83" xmlns="http://www.w3.org/2000/svg">
    <path id="Trazado" fill="#00ffa1" stroke="none" d="M 128.360001 82.990005 L 145.689987 82.990005 C 146.53804 83.033585 147.364822 82.715714 147.965286 82.11525 C 148.56572 81.514847 148.883591 80.688065 148.840012 79.839981 L 148.840012 42.620007 C 148.840012 41.359997 149.259995 40.940014 149.680008 40.940014 C 150.100021 40.940014 150.62999 41.250011 150.840012 42.620007 L 157.670029 80.680008 C 157.927902 82.038834 159.127121 83.014236 160.509995 82.990005 L 163.889999 82.990005 C 165.271408 83.010147 166.468369 82.036575 166.730026 80.680008 L 173.660019 42.620007 C 173.980026 41.149975 174.389999 40.940014 174.920029 40.940014 C 175.449997 40.940014 175.660019 41.359997 175.660019 42.620007 L 175.660019 79.849991 C 175.61644 80.698074 175.93425 81.524857 176.534714 82.125259 C 177.135178 82.725723 177.96196 83.043594 178.809982 83.000015 L 196.139999 83.000015 C 196.988022 83.043594 197.814804 82.725723 198.415268 82.125259 C 199.015732 81.524857 199.333603 80.698074 199.290024 79.849991 L 199.290024 2.250015 C 199.333603 1.401962 199.015732 0.57518 198.415268 -0.025284 C 197.814804 -0.625717 196.988022 -0.943588 196.139999 -0.900009 L 171.530014 -0.900009 C 169.530014 -0.900009 168.590012 0.360001 168.270004 2.250015 L 163.330002 37.169994 C 163.220016 38.009991 162.809982 38.430004 162.170029 38.430004 C 161.530014 38.430004 161.11998 38.009991 161.009995 37.169994 L 156.189987 2.250015 C 156.182236 1.397781 155.832687 0.584335 155.219833 -0.007858 C 154.606918 -0.600052 153.781967 -0.921463 152.929977 -0.900009 L 128.360001 -0.900009 C 127.511948 -0.943588 126.685165 -0.625717 126.084732 -0.025284 C 125.484268 0.57518 125.166428 1.401962 125.210007 2.250015 L 125.210007 79.849991 C 125.169357 80.696365 125.48851 81.520401 126.088608 82.118607 C 126.688705 82.716812 127.513779 83.03334 128.360001 82.990005 Z M 80.039993 79.839981 C 79.996414 80.688065 80.314285 81.514847 80.914719 82.11525 C 81.515182 82.715714 82.341965 83.033585 83.189987 82.990005 L 117.889999 82.990005 C 118.738052 83.033585 119.564835 82.715714 120.165268 82.11525 C 120.765732 81.514847 121.083572 80.688065 121.039993 79.839981 L 121.039993 69.839981 C 121.083572 68.991959 120.765732 68.165176 120.165268 67.564713 C 119.564835 66.96431 118.738052 66.646439 117.889999 66.690018 L 108.889999 66.690018 C 108.249863 66.800064 107.596146 66.592422 107.136856 66.133133 C 106.677567 65.673843 106.469925 65.020157 106.580002 64.38002 L 106.580002 2.250015 C 106.596481 1.409622 106.269913 0.598801 105.675552 0.00444 C 105.081192 -0.58989 104.27037 -0.916489 103.430008 -0.900009 L 83.189987 -0.900009 C 82.349625 -0.916489 81.538803 -0.58989 80.944443 0.00444 C 80.350082 0.598801 80.023514 1.409622 80.039993 2.250015 L 80.039993 79.849991 Z M 46.319992 79.839981 C 46.276413 80.688065 46.594284 81.514847 47.194717 82.11525 C 47.795181 82.715714 48.621964 83.033585 49.469986 82.990005 L 69.740005 82.990005 C 70.586227 83.03334 71.411301 82.716812 72.011398 82.118607 C 72.611496 81.520401 72.930649 80.696365 72.889999 79.849991 L 72.889999 2.250015 C 72.933578 1.401962 72.615707 0.57518 72.015274 -0.025284 C 71.41481 -0.625717 70.588028 -0.943588 69.740005 -0.900009 L 49.479996 -0.900009 C 48.631943 -0.943588 47.805161 -0.625717 47.204727 -0.025284 C 46.604294 0.57518 46.286423 1.401962 46.330002 2.250015 L 46.330002 79.849991 Z M 3.15001 82.990005 L 23.419998 82.990005 C 24.268051 83.033585 25.094833 82.715714 25.695267 82.11525 C 26.295731 81.514847 26.613571 80.688065 26.569992 79.839981 L 26.569992 52.690014 C 26.487167 52.02705 26.715775 51.36311 27.189163 50.891674 C 27.662521 50.4203 28.327408 50.194408 28.990005 50.27998 L 37.180008 50.27998 C 38.02803 50.323559 38.854813 50.005749 39.455276 49.405285 C 40.05571 48.804821 40.373581 47.978039 40.330002 47.130016 L 40.330002 39.789989 C 40.373581 38.941967 40.05571 38.115185 39.455276 37.514721 C 38.854813 36.914288 38.02803 36.596416 37.180008 36.639996 L 28.990005 36.639996 C 28.327408 36.725567 27.662521 36.499737 27.189163 36.028301 C 26.715775 35.556866 26.487167 34.892925 26.569992 34.229992 L 26.569992 17.770004 C 26.487167 17.107071 26.715775 16.44313 27.189163 15.971695 C 27.662521 15.50029 28.327408 15.274429 28.990005 15.360001 L 37.889999 15.360001 C 38.738052 15.40358 39.564835 15.085709 40.165268 14.485275 C 40.765732 13.884842 41.083572 13.05806 41.039993 12.210007 L 41.039993 2.210007 C 41.083572 1.361954 40.765732 0.535172 40.165268 -0.065262 C 39.564835 -0.665726 38.738052 -0.983566 37.889999 -0.939987 L 3.159989 -0.939987 C 2.311967 -0.983566 1.485184 -0.665726 0.88472 -0.065262 C 0.284287 0.535172 -0.033584 1.361954 0.009995 2.210007 L 0.009995 79.849991 C -0.030654 80.696365 0.288499 81.520401 0.888596 82.118607 C 1.488694 82.716812 2.313798 83.03334 3.159989 82.990005 Z"/>
    <path id="path1" fill="#060613" stroke="none" d="M 240.10997 79.849991 C 240.066452 80.698074 240.384262 81.524857 240.984726 82.125259 C 241.58519 82.725723 242.411972 83.043594 243.259995 83.000015 L 261.540039 83.000015 C 262.388062 83.043594 263.214844 82.725723 263.815308 82.125259 C 264.41571 81.524857 264.733582 80.698074 264.690002 79.849991 L 264.690002 50.490002 C 264.668091 50.261181 264.749512 50.034557 264.912048 49.872021 C 265.074585 49.709484 265.301208 49.628063 265.530029 49.649975 C 266.26001 49.649975 266.369995 50.180004 266.890015 51.539989 L 276.890015 80.800003 C 277.287109 82.120621 278.511169 83.018265 279.890015 83.000015 L 296.590027 83.000015 C 297.436218 83.04335 298.261292 82.726822 298.861389 82.128616 C 299.461487 81.530411 299.78064 80.706375 299.73999 79.860001 L 299.73999 2.250015 C 299.783569 1.401962 299.465759 0.57518 298.865295 -0.025284 C 298.264832 -0.625717 297.438049 -0.943588 296.590027 -0.900009 L 278.350037 -0.900009 C 277.501953 -0.943588 276.675171 -0.625717 276.074768 -0.025284 C 275.474304 0.57518 275.156433 1.401962 275.200012 2.250015 L 275.200012 31.609997 C 275.221985 31.838818 275.140564 32.065441 274.978027 32.227978 C 274.815491 32.390514 274.588806 32.471935 274.359985 32.449993 C 273.730042 32.449993 273.630005 32.240002 273.200012 31.090008 L 263.119995 1.520004 C 262.785828 0.016464 261.395447 -1.011429 259.859985 -0.889999 L 243.259995 -0.889999 C 242.411972 -0.933578 241.58519 -0.615707 240.984726 -0.015274 C 240.384262 0.58519 240.066452 1.411972 240.10997 2.259995 L 240.10997 79.849991 Z M 206.389999 79.849991 C 206.34642 80.698074 206.664291 81.524857 207.264755 82.125259 C 207.865158 82.725723 208.69194 83.043594 209.540024 83.000015 L 229.809982 83.000015 C 230.658066 83.043594 231.484848 82.725723 232.085251 82.125259 C 232.685715 81.524857 233.003586 80.698074 232.960007 79.849991 L 232.960007 2.250015 C 233.003586 1.401962 232.685715 0.57518 232.085251 -0.025284 C 231.484848 -0.625717 230.658066 -0.943588 229.809982 -0.900009 L 209.549973 -0.900009 C 208.70195 -0.943588 207.875168 -0.625717 207.274704 -0.025284 C 206.674301 0.57518 206.35643 1.401962 206.400009 2.250015 L 206.400009 79.849991 Z"/>
</svg>
