<svg xmlns="http://www.w3.org/2000/svg" viewBox="0 0 299.77 83.89"><title>Filmin logo - Brandlogos.net</title><path d="M490.47,553.94H507.8a3,3,0,0,0,3.15-3.15V513.57c0-1.26.42-1.68.84-1.68s.95.31,1.16,1.68l6.83,38.06a2.84,2.84,0,0,0,2.84,2.31H526a2.85,2.85,0,0,0,2.84-2.31l6.93-38.06c.32-1.47.73-1.68,1.26-1.68s.74.42.74,1.68V550.8a3,3,0,0,0,3.15,3.15h17.33a3,3,0,0,0,3.15-3.15V473.2a3,3,0,0,0-3.15-3.15H533.64c-2,0-2.94,1.26-3.26,3.15l-4.94,34.92c-.11.84-.52,1.26-1.16,1.26s-1.05-.42-1.16-1.26L518.3,473.2a3.18,3.18,0,0,0-3.26-3.15H490.47a3,3,0,0,0-3.15,3.15V550.8A3,3,0,0,0,490.47,553.94Zm-48.32-3.15a3,3,0,0,0,3.15,3.15H480a3,3,0,0,0,3.15-3.15v-10a3,3,0,0,0-3.15-3.15H471a2,2,0,0,1-2.31-2.31V473.2a3.09,3.09,0,0,0-3.15-3.15H445.3a3.09,3.09,0,0,0-3.15,3.15V550.8Zm-33.72,0a3,3,0,0,0,3.15,3.15h20.27A3,3,0,0,0,435,550.8V473.2a3,3,0,0,0-3.15-3.15H411.59a3,3,0,0,0-3.15,3.15V550.8Zm-43.17,3.15h20.27a3,3,0,0,0,3.15-3.15V523.64a2.16,2.16,0,0,1,2.42-2.41h8.19a3,3,0,0,0,3.15-3.15v-7.34a3,3,0,0,0-3.15-3.15H391.1a2.16,2.16,0,0,1-2.42-2.41V488.72a2.16,2.16,0,0,1,2.42-2.41H400a3,3,0,0,0,3.15-3.15v-10a3,3,0,0,0-3.15-3.15H365.27a3,3,0,0,0-3.15,3.15V550.8A3,3,0,0,0,365.27,553.94Z" transform="translate(-362.11 -470.06)" style="fill:#00ffa1"/><path d="M602.22,550.8a3,3,0,0,0,3.15,3.15h18.28a3,3,0,0,0,3.15-3.15V521.44a.77.77,0,0,1,.84-.84c.73,0,.84.53,1.36,1.89l10,29.26a3.09,3.09,0,0,0,3,2.2h16.7a3,3,0,0,0,3.15-3.14V473.2a3,3,0,0,0-3.15-3.15H640.46a3,3,0,0,0-3.15,3.15v29.36a.77.77,0,0,1-.84.84c-.63,0-.73-.21-1.16-1.36l-10.08-29.57a3.09,3.09,0,0,0-3.26-2.41h-16.6a3,3,0,0,0-3.15,3.15V550.8Zm-33.72,0a3,3,0,0,0,3.15,3.15h20.27a3,3,0,0,0,3.15-3.15V473.2a3,3,0,0,0-3.15-3.15H571.66a3,3,0,0,0-3.15,3.15V550.8Z" transform="translate(-362.11 -470.06)" style="fill:#060613"/></svg>